/* XPM */
static char *e6ecc8ee68514100b9b38825b2ee8535as8k4xtrdK40Ricm[] = {
/* columns rows colors chars-per-pixel */
"24 24 12 1 ",
"  c None",
". c gray15",
"X c #36542E",
"o c #507D45",
"O c DimGray",
"+ c #887000",
"@ c #B86E28",
"# c #6CA85D",
"$ c #B89600",
"% c #FC9838",
"& c gray66",
"* c #FFD1A6",
/* pixels */
"                        ",
"                        ",
"                        ",
"           ...          ",
"         ..@@@..        ",
"        .@@@@@@@..      ",
"  .     .@@@@@@@@@.     ",
" .O.   .@%%%%@@@@.      ",
" .O.   .%%%%*%@@@.      ",
" .&O.  .%%%%%%@%@@..    ",
" .&O.  ..%%.%%@%@.oo..  ",
"  .&O..%%%%.%%@..XXXo#. ",
"  .&O. ..@@%%@@@..XX#o. ",
"   .&O .@%%@@@..oo..Xo. ",
"   .&O.X.@@@@.ooo#o.Xoo.",
"    ...Xo....oooo.oo.Xo.",
"    .%%.ooooo....ooo.Xo.",
"    .%%..ooo.%%%ooo.Xo. ",
"     ..+......%%oo....  ",
"       ..XXXXX....X.    ",
"       .ooXXXXXXXoo.    ",
"       ...o.....o....   ",
"      .+$$..    .+$$+.  ",
"      .....      .....  "
};
