/* XPM */
static char *_049c96cd56c4bf1954809162b284ee8ODAAoHoLhD15PcPC[] = {
/* columns rows colors chars-per-pixel */
"24 24 9 1 ",
"  c None",
". c gray15",
"X c gray24",
"o c DimGray",
"O c #CF3232",
"+ c #FC9838",
"@ c #CEF200",
"# c #FFD1A6",
"$ c gray89",
/* pixels */
"                        ",
"                        ",
"          ...           ",
"        ..@@@..         ",
"       .@@@@@@@.        ",
"      .@@@@@@@+@.       ",
"      .@@@++@+@@.       ",
"     .@@+++++@@@@.      ",
"      .++++++@+@@.      ",
"      ..++.++@+@@@.     ",
"     .++++.++++@@@.     ",
"      ..+++#+++..@@.    ",
"      .+OO++++.o$.@.    ",
"     .$.++++..o$$$.     ",
"     .o$....$$o$$$$.    ",
"    .$$o$..$oo$$$$$.    ",
"   ..o$$o.$o$$$$.$$$.   ",
"  .++o.$$oo$$oo$.$...   ",
"  .++o.$$$o$$$$$$.++.   ",
"   ...$$$$o$$$$$$.++.   ",
"     .$$$$o$$$$$$...    ",
"     .$$$$$o$$$$$$.     ",
"     .XooX....XooX.     ",
"     .....    .....     "
};
