/* XPM */
static char *ab42e9095ada4fbaa362b4e6b598c257rIWEGKpSMFdy6AJh[] = {
/* columns rows colors chars-per-pixel */
"24 24 11 1 ",
"  c None",
". c gray15",
"X c #36542E",
"o c #507D45",
"O c #913D3D",
"+ c #BD4F4F",
"@ c #E86161",
"# c #6CA85D",
"$ c #FC9838",
"% c #FF9C9C",
"& c white",
/* pixels */
"          .....         ",
"        ..@O@%%..       ",
"       .@@@%OOO%%.      ",
"      .@@OOO%O%OO%.     ",
"      .@O@%%O%O%O%.     ",
"     .@O@OOO%%%O%O@.    ",
"     .@O@@O@@O%O%%@.    ",
"     .O@@O@@O@O@OO@.    ",
"     .@@@..@@@O@@@O.    ",
"      .@.&&.@@@OOO.     ",
"       .@..@@@O@@@..... ",
"   .....@@@@@O@@.. .@@@.",
"  .@@@..@OO@@@..oo.@.@@.",
"  .@@.@..@@@@.ooo#o.@@. ",
"   .@@.Xo....ooo......  ",
"   .XXX.ooooooo....     ",
"    .X. .o..oo..@@@.    ",
"  .  .   .$$...@%@.@.   ",
" .@.    .@..+..@@. . .  ",
"  .@.  .@@@+++@@@.. .@. ",
"  .@@..@%@@.++@@.@@.@.  ",
"   .@@%%@@..+++@.@@%@.  ",
"    .@@@@O. .++..O@@.   ",
"     .....   ..  ...    "
};
