/* XPM */
static char *_a89e3f422df4fa2944a58cbd63b4f8d8whPtEsRvuIfU5iD[] = {
/* columns rows colors chars-per-pixel */
"24 24 14 1 ",
"  c None",
". c gray15",
"X c gray24",
"o c DimGray",
"O c red",
"+ c #887000",
"@ c #B86E28",
"# c #FC9838",
"$ c #8B8064",
"% c #B09D6B",
"& c #CCB36E",
"* c #D8BC72",
"= c #FFD1A6",
"- c white",
/* pixels */
"                        ",
"          .....         ",
"         .%%%%%.        ",
"        .%%%%%*%.       ",
"        .%%%%%%%.       ",
"       ...........      ",
"      .%%%%%***%%%.     ",
"     .%...........%.    ",
"   .  ...@@@-@@.@..     ",
"  .+.   ..@-.-@.@.      ",
" .+.+. .###-.-@@.       ",
" .+.+. ...##-=#@..      ",
" ...+.  .######.$$.     ",
"   ... .%.####.$....    ",
"   .##...-....%.##.%.   ",
"   .##%.%-OO--%.##.%.   ",
"   ......-OO--%%.....   ",
"   .+.  ..OO...%.$$%.   ",
"   .+. .$$OO&&&...$$%.  ",
"   .+. .%%%.$$$&&.$$$%. ",
"   .+..%%%%.%%%%%.$$..  ",
"    .  ...........$.    ",
"      .ooXX...XooX.     ",
"      ...... ......     "
};
