/* XPM */
static char *_38fa87ee895449581dec80190de6ac8IbBinVPyS72MGKLl[] = {
/* columns rows colors chars-per-pixel */
"24 24 10 1 ",
"  c None",
". c gray15",
"X c #544916",
"o c gray28",
"O c DimGray",
"+ c #887000",
"@ c #B89600",
"# c #FC9838",
"$ c gray66",
"% c gray78",
/* pixels */
"                        ",
"                        ",
"                        ",
"       ..........       ",
"      .OOOOOOO$$O.      ",
"      .oooooooOOO.      ",
"      .oo...ooOOO.      ",
"      .oo. .ooOOO.      ",
"      .oo. .ooOOO..     ",
"      .oo. .ooOOO.X.    ",
"      .oo...ooOOO.X.    ",
"      ..ooooooo..X.     ",
"     .X........XX.      ",
"   ..X.%X%%%XX%%++.     ",
"  .##....XXX.%XX++X.    ",
"  .##X.X.XXX..%X++X.    ",
"   ....XX...X.%XX+X.    ",
"      .+++++++.%XXX.    ",
"       ........%XXXX.   ",
"      .XXXXXXXX.%XXX.   ",
"     .X+++XXXXX.%XXX.   ",
"     .+...+XXXXX.%XXX.  ",
"    .X.+@+.+XXXXX.%%%.  ",
"    ..................  "
};
