/* XPM */
static char *_31d52c1a024428789eadbe99b1e212bAwi8BEO2KMNjJl9E[] = {
/* columns rows colors chars-per-pixel */
"16 17 4 1 ",
"  c None",
". c gray15",
"X c gray79",
"o c #F3F3F3",
/* pixels */
"                ",
"                ",
"                ",
"                ",
"   ..           ",
"  .Xo.          ",
" .XXX.          ",
"  .XXX.         ",
"   ..XX.        ",
"     .XX.       ",
"      .XX..     ",
"       .XXo.    ",
"        .XXX.   ",
"        .XX.    ",
"         ..     ",
"                ",
"                "
};
