/* XPM */
static char *_637078709790[] = {
/* columns rows colors chars-per-pixel */
"16 16 7 1 ",
"  c gray15",
". c #59438C",
"X c #7B5DC2",
"o c gray57",
"O c gray79",
"+ c #F3F3F3",
"@ c None",
/* pixels */
"@@@@@@@@@@@@@@@@",
"             @@@",
" XXX+++++++++ @@",
" ...OOOOOOOOO+ @",
" oo.OOOOOOOO O+ ",
" ...OOOOOOO @ O ",
" oo.OOOOOOOO OO ",
" ...OOOOOOOO+OO ",
" oo.OOOOOOOOOOO ",
" ...OOOOOOOOOOO ",
" oo.OOOOOOOOOOO ",
" ...OOOOOOOOOOO ",
" oo.OOOOOOOOOOO ",
" ...ooooooooooo ",
"                ",
"@@@@@@@@@@@@@@@@"
};
