/* XPM */
static char *_636896954969[] = {
/* columns rows colors chars-per-pixel */
"24 24 10 1 ",
"  c gray15",
". c #5A4420",
"X c #785A2A",
"o c #9B7537",
"O c #388729",
"+ c #2FFF00",
"@ c #49CA2C",
"# c #C69E5D",
"$ c #DDC59E",
"% c None",
/* pixels */
"%%%%%%%%         %%%%%%%",
"%%%%%   #########   %%%%",
"%%%% ###         ### %%%",
"%%% #   @@@@@@@@@   # %%",
"%%% .@@@@@@@@@@@@@@@. %%",
"%%% $OOO@@@@@@@@@OOO$ %%",
"%%% #$$$OOOOOOOOO$$$# %%",
"%%% .###@++++@+@$###. %%",
"%%% ....##@@##@##.... %%",
"%%% .....X@@XX@X..... %%",
"%%% o...XX@ooo@XX...o %%",
"%%% .oooXX@oooXXXooo. %%",
"%%% ....oo@ooo@oo.... %%",
"%%% .....X@XXXXX..... %%",
"%%% ...XXX@oooXXXX... %%",
"%%% o...XXoooooXX...o %%",
"%%% .oooXXXoooXXXooo. %%",
"%%% ....oo@oooooo.... %%",
"%%% .....XXXXXXX..... %%",
"%%% ...XXXXoooXXXX... %%",
"%%% o...XXoooooXX...o %%",
"%%%% oooXXXoooXXXooo %%%",
"%%%%%   ooooooooo   %%%%",
"%%%%%%%%         %%%%%%%"
};
