/* XPM */
static char *_636897018938[] = {
/* columns rows colors chars-per-pixel */
"24 24 11 1 ",
"  c gray15",
". c gray24",
"X c #264358",
"o c #355A75",
"O c #3B6D7C",
"+ c #535145",
"@ c #126B99",
"# c #4C7DA1",
"$ c #1688C2",
"% c #5DB2C8",
"& c #AAA186",
/* pixels */
"                        ",
" OOOOOOOOOOOOOOOOOOOOOO ",
" OOOOOOOOOOOOOOOOOOOOOO ",
" %%%%%%%%%%%%%%%%%%%%%% ",
" oooooooooooooooooooooo ",
" o   .......   ++++   o ",
" o   .##.##.   +&&+   o ",
" o   .##.##.   +&&+   o ",
" o   .##.##.  +&&+    o ",
" o   .##.##.  +&&+    o ",
" o   .##.##.  +&&+    o ",
" o XX.##.##.X+&&+XXXX o ",
" o XX.##.##.X+&&+XXXX o ",
" oooooooooooooooooooooo ",
" o @@@@@@@....  ....  o ",
" o @$$@$$@.##.  .##.  o ",
" o @$$@$$@.##.  .##.  o ",
" o @$$@$$@.##.  .##.  o ",
" o @$$@$$@.##.  .##.  o ",
" o @$$@$$@.##.  .##.  o ",
" o @$$@$$@.##.XX.##.X o ",
" o @$$@$$@.##.XX.##.X o ",
" oooooooooooooooooooooo ",
"                        "
};
